<svg width="22" height="23" viewBox="0 0 22 23" fill="none" xmlns="http://www.w3.org/2000/svg">
<rect x="16" y="2" width="6" height="2" fill="#AFAFBF"/>
<rect x="18" y="6" width="6" height="2" transform="rotate(-90 18 6)" fill="#AFAFBF"/>
<path fill-rule="evenodd" clip-rule="evenodd" d="M5.93702 7.84538C6.00787 7.74688 6.08656 7.62631 6.18689 7.46372C6.22355 7.40433 6.32349 7.23944 6.39792 7.11665L6.39798 7.11654L6.4818 6.97841C7.31079 5.62239 7.91339 5 9 5H13C14.0866 5 14.6892 5.62239 15.5182 6.97841L15.6021 7.11664C15.6765 7.23943 15.7765 7.40433 15.8131 7.46372C15.9134 7.62631 15.9921 7.74688 16.063 7.84538C16.1097 7.91033 16.1505 7.96194 16.1838 8H19C20.6569 8 22 9.34315 22 11V20C22 21.6569 20.6569 23 19 23H3C1.34315 23 0 21.6569 0 20V11C0 9.34315 1.34315 8 3 8H5.8162C5.84949 7.96194 5.8903 7.91033 5.93702 7.84538ZM3 10C2.44772 10 2 10.4477 2 11V20C2 20.5523 2.44772 21 3 21H19C19.5523 21 20 20.5523 20 20V11C20 10.4477 19.5523 10 19 10H16C15.3357 10 14.8876 9.63641 14.4394 9.01326C14.3363 8.86988 14.2341 8.71332 14.1111 8.51409C14.069 8.44583 13.9596 8.26536 13.8846 8.14152L13.8118 8.02159C13.3595 7.28172 13.0867 7 13 7H9C8.91327 7 8.6405 7.28172 8.1882 8.02159L8.11543 8.14152L8.11502 8.14219C8.03998 8.26601 7.93092 8.44596 7.88887 8.51409C7.76592 8.71332 7.66375 8.86988 7.56061 9.01326C7.11237 9.63641 6.66434 10 6 10H3ZM19 12C19 12.5523 18.5523 13 18 13C17.4477 13 17 12.5523 17 12C17 11.4477 17.4477 11 18 11C18.5523 11 19 11.4477 19 12ZM6 15C6 17.7614 8.23858 20 11 20C13.7614 20 16 17.7614 16 15C16 12.2386 13.7614 10 11 10C8.23858 10 6 12.2386 6 15ZM14 15C14 16.6569 12.6569 18 11 18C9.34315 18 8 16.6569 8 15C8 13.3431 9.34315 12 11 12C12.6569 12 14 13.3431 14 15Z" fill="#AFAFBF"/>
</svg>
