<svg width="34" height="36" viewBox="0 0 34 36" fill="none" xmlns="http://www.w3.org/2000/svg">
<path fill-rule="evenodd" clip-rule="evenodd" d="M0 13.2222C0 5.91979 5.91979 0 13.2222 0H20.7778C28.0802 0 34 5.91979 34 13.2222V22.5C34 26.5674 31.9834 30.4471 28.9007 33C26.4489 35.0304 23.5 36 20.5 36L20 33.8056H15.1111C7.80868 33.8056 0 29.8024 0 22.5V13.2222ZM20 12C20 13.6569 18.6569 15 17 15C15.3431 15 14 13.6569 14 12C14 10.3431 15.3431 9 17 9C18.6569 9 20 10.3431 20 12ZM17 25C18.6569 25 20 23.6569 20 22C20 20.3431 18.6569 19 17 19C15.3431 19 14 20.3431 14 22C14 23.6569 15.3431 25 17 25Z" fill="white"/>
</svg>
