<svg width="36" height="36" viewBox="0 0 36 36" fill="none" xmlns="http://www.w3.org/2000/svg">
<path fill-rule="evenodd" clip-rule="evenodd" d="M0 14C0 6.26802 6.26801 0 14 0H22C29.732 0 36 6.26802 36 14V22C36 29.732 29.732 36 22 36H14C6.26801 36 0 29.732 0 22V14ZM10 8C10 6.34314 11.3431 5 13 5H23C24.6569 5 26 6.34314 26 8V28C26 29.6569 24.6569 31 23 31H13C11.3431 31 10 29.6569 10 28V8ZM18 29C19.1046 29 20 28.1046 20 27C20 25.8954 19.1046 25 18 25C16.8954 25 16 25.8954 16 27C16 28.1046 16.8954 29 18 29Z" fill="white"/>
</svg>
