<svg width="140" height="26" viewBox="0 0 140 26" fill="none" xmlns="http://www.w3.org/2000/svg">
<path fill-rule="evenodd" clip-rule="evenodd" d="M0 25.189L2.90479 23.5611V1.98531L0 0.33902V0H18.2148V6.48798H18.0504L14.9813 0.762617H6.66852V12.0558H12.0583L14.1957 8.79389H14.5005V16.1713H14.1957L12.0583 12.8184H6.66852V24.7654H16.1993L20.1943 19.0219L20.3525 19.04L19.4088 25.528H0.000366211L0 25.189ZM38.1305 0H28.1797V0.33902L31.0845 1.98531V23.5611L28.1797 25.189V25.528H46.2668L47.2106 19.04L47.0524 19.0219L43.0573 24.7654H34.8482V1.98531L38.1305 0.33902V0ZM54.9727 25.189L57.8774 23.5611V1.98531L54.9727 0.33902V0H73.1875V6.48798H73.0231L69.954 0.762617H61.6412V12.0558H67.0306L69.1684 8.79389H69.4731V16.1713H69.1684L67.0306 12.8184H61.6412V24.7654H71.1719L75.167 19.0219L75.3256 19.04L74.3815 25.528H54.9727V25.189ZM122.571 25.2074L119.575 23.2947L119.575 3.72846L135.878 26L137.005 25.528V2.23325L140.001 0.32093V0.000333786H133.204V0.32093L136.2 2.23325V20.3534L121.323 0H115.848V0.339008L118.807 1.9853V23.2947L115.848 25.2074V25.528H122.571V25.2074ZM98.5001 16.4135H93.8413H89.1828L93.8413 3.3833L98.5001 16.4135ZM96.466 0.000333786H93.8413L91.5213 0V0.339008L93.2146 2.7295L85.6871 23.5611L82.4961 25.1889V25.528H90.4008V25.1889L86.6494 23.543H86.6309L88.8966 17.1761H93.8413L98.7863 17.1764L101.07 23.5433L98.1957 25.1893V25.5283H108.22V25.1893L105.205 23.5614L96.466 0.000333786Z" fill="black"/>
</svg>
