<svg width="140" height="26" viewBox="0 0 140 26" fill="none" xmlns="http://www.w3.org/2000/svg">
<path d="M93.8413 17.1761V16.4135H98.5001L93.8413 3.38331V0.000333066H96.466L105.205 23.5614L108.22 25.1893V25.5283H98.1957V25.1893L101.07 23.5433L98.7863 17.1764H93.8413V17.1761ZM119.574 23.2947L122.57 25.2074V25.528H115.847V25.2074L118.807 23.2947V1.9853L115.847 0.339009V0H121.322L136.2 20.3534V2.23325L133.203 0.32093V0.000333066H140V0.32093L137.004 2.23325V25.528L135.877 26L119.575 3.72846V23.2947H119.574ZM0 25.1893L2.90476 23.5614V1.98565L0 0.339353V0.000333066H18.2148V6.48831H18.0504L14.9813 0.76295H6.66853V12.0561H12.0583L14.1957 8.79422H14.5005V16.1717H14.1957L12.0583 12.8187H6.66853V24.7657H16.1993L20.1943 19.0223L20.3526 19.0403L19.4088 25.5283H0.000343002V25.1893H0ZM93.8413 0.000333066V3.38331L89.1828 16.4135H93.8413V17.1761H88.8966L86.6308 23.543H86.6494L90.4008 25.189V25.528H82.4961V25.189L85.6871 23.5611L93.2146 2.7295L91.5213 0.339009V0H93.8413V0.000333066ZM28.1807 0.000333066H38.1315V0.339353L34.8493 1.98565V24.7657H43.0584L47.0534 19.0223L47.2116 19.0403L46.2679 25.5283H28.1807V25.1893L31.0855 23.5614V1.98565L28.1807 0.339353V0.000333066ZM54.9729 25.1893L57.8777 23.5614V1.98565L54.9729 0.339353V0.000333066H73.1877V6.48831H73.0233L69.9542 0.76295H61.6414V12.0561H67.0309L69.1686 8.79422H69.4734V16.1717H69.1686L67.0309 12.8187H61.6414V24.7657H71.1722L75.1672 19.0223L75.3258 19.0403L74.3817 25.5283H54.9729V25.1893Z" fill="white"/>
</svg>
