<svg width="18" height="19" viewBox="0 0 18 19" fill="none" xmlns="http://www.w3.org/2000/svg">
<path fill-rule="evenodd" clip-rule="evenodd" d="M5.59322 18.0494C2.52563 18.0494 0 15.5259 0 12.4346V5.61474C0 2.5227 2.52563 0 5.59322 0H12.3364C15.426 0 17.9296 2.5227 17.9296 5.61474V12.4346C17.9296 15.5259 15.426 18.0494 12.3364 18.0494H5.59322ZM1.82719 5.61556V12.4355C1.82719 14.5266 3.51827 16.2314 5.59322 16.2314H12.3364C14.4105 16.2314 16.1024 14.5266 16.1024 12.4355V5.61556C16.1024 3.52439 14.4105 1.81962 12.3364 1.81962H5.59322C3.51827 1.81962 1.82719 3.52439 1.82719 5.61556Z" fill="#2F2F2F"/>
<path fill-rule="evenodd" clip-rule="evenodd" d="M4.30743 9.0255C4.30743 6.43394 6.40438 4.32066 8.97565 4.32066C11.5469 4.32066 13.6219 6.43394 13.6219 9.0255C13.6219 11.6162 11.5469 13.7303 8.97565 13.7303C6.40438 13.7303 4.30743 11.6162 4.30743 9.0255ZM6.15663 9.0255C6.15663 10.5941 7.41903 11.8665 8.97565 11.8665C10.5094 11.8665 11.7727 10.5941 11.7727 9.0255C11.7727 7.45695 10.5094 6.18372 8.97565 6.18372C7.41903 6.18372 6.15663 7.45695 6.15663 9.0255Z" fill="#2F2F2F"/>
<path fill-rule="evenodd" clip-rule="evenodd" d="M13.8474 5.52451C13.0813 5.52451 12.4497 4.88873 12.4497 4.11595C12.4497 3.31939 13.0813 2.68361 13.8474 2.68361C14.6143 2.68361 15.2459 3.31939 15.2459 4.11595C15.2459 4.88873 14.6143 5.52451 13.8474 5.52451Z" fill="#2F2F2F"/>
</svg>
