<svg width="20" height="12" viewBox="0 0 20 12" fill="none" xmlns="http://www.w3.org/2000/svg">
<path fill-rule="evenodd" clip-rule="evenodd" d="M11.1236 11.6601C11.1236 11.6601 11.459 11.6217 11.6267 11.4502C11.7944 11.2778 11.7758 10.9509 11.7758 10.9509C11.7758 10.9509 11.7572 9.43951 12.4466 9.2287C13.1361 8.99825 14.0118 10.6838 14.9435 11.3153C15.6516 11.8137 16.192 11.6985 16.192 11.6985L18.6703 11.6601C18.6703 11.6601 19.9747 11.5842 19.3597 10.5498C19.3038 10.473 19.0057 9.7843 17.5141 8.38637C15.9489 6.93129 16.1538 7.16174 18.0359 4.65263C19.1725 3.10286 19.6384 2.16496 19.4893 1.7621C19.3589 1.3798 18.5203 1.47627 18.5203 1.47627L15.7066 1.49502C15.7066 1.49502 15.5026 1.47627 15.3535 1.57095C15.2044 1.64777 15.1112 1.85768 15.1112 1.85768C15.1112 1.85768 14.664 3.06355 14.0677 4.07828C12.8193 6.20329 12.3348 6.31852 12.1298 6.18364C11.6454 5.87726 11.7572 4.93936 11.7572 4.28908C11.7572 2.20247 12.0739 1.34049 11.1609 1.12969C10.8627 1.05287 10.6391 0.995703 9.85651 0.995703C8.85029 0.976945 8.01177 0.995703 7.52729 1.22616C7.21052 1.39855 6.96828 1.74245 7.11735 1.7621C7.30369 1.78086 7.71363 1.87733 7.93724 2.18371C8.21674 2.56691 8.21674 3.4673 8.21674 3.4673C8.21674 3.4673 8.38445 5.8987 7.82544 6.20419C7.45276 6.41499 6.93101 5.97373 5.81298 4.04076C5.25397 3.04569 4.82539 1.95415 4.82539 1.95415C4.82539 1.95415 4.73223 1.74335 4.58316 1.64777C4.41546 1.51378 4.15458 1.45572 4.15458 1.45572L1.48995 1.47537C1.48995 1.47537 1.09864 1.49413 0.949573 1.66563C0.819137 1.81927 0.949573 2.1453 0.949573 2.1453C0.949573 2.1453 3.01792 7.06527 5.38441 9.53419C7.54682 11.8128 10.0056 11.6592 10.0056 11.6592L11.1236 11.6601Z" fill="#2F2F2F"/>
</svg>
